<svg t="1704373242008" class="icon" viewBox="0 0 1024 1024" version="1.1" xmlns="http://www.w3.org/2000/svg" p-id="881" width="200" height="200"><path d="M496.47616 120.58624a108.544 108.544 0 0 0-79.79008 34.52928L116.5312 420.2496c-23.10144 22.97856-29.4912 55.296-17.2032 83.72224l2.62144 5.48864a77.0048 77.0048 0 0 0 62.54592 40.26368h1.14688v284.42624c0 63.0784 42.5984 105.63584 115.5072 105.63584h129.67936l5.20192-0.24576c27.648-2.58048 50.62656-25.27232 50.62656-53.41184l0.04096-184.40192h72.17152v184.32c0 29.9008 24.9856 53.6576 54.96832 53.6576h129.67936l8.02816-0.2048c71.02464-2.78528 108.29824-43.13088 108.29824-105.43104V549.6832l-5.12 0.2048c31.08864 0 59.10528-17.77664 71.2704-45.8752a73.89184 73.89184 0 0 0-15.72864-82.61632l-315.14624-267.4688c-18.14528-20.43904-47.59552-33.3824-78.6432-33.3824z m0.08192 52.4288c17.28512 0 33.50528 7.12704 44.6464 19.456l312.27904 265.216c6.47168 6.59456 8.6016 17.65376 4.21888 27.48416a28.672 28.672 0 0 1-26.8288 16.87552h-42.5984v328.4992c0 37.80608-18.51392 56.77056-67.33824 56.77056h-128.2048c-3.80928 0-6.67648-2.70336-6.67648-5.40672v-190.6688a38.912 38.912 0 0 0-38.5024-39.1168H457.1136c-22.03648 0-37.6832 18.18624-37.6832 39.1168v190.75072c0 2.29376-3.39968 5.40672-7.53664 5.40672h-128.2048c-45.75232 0-66.51904-20.6848-66.51904-56.77056v-328.4992h-42.5984a28.59008 28.59008 0 0 1-26.8288-16.67072 25.88672 25.88672 0 0 1 5.89824-29.16352l297.45152-262.9632a61.68576 61.68576 0 0 1 45.4656-20.31616z" p-id="882"></path></svg>