<svg t="1704371962112" class="icon" viewBox="0 0 1024 1024" version="1.1" xmlns="http://www.w3.org/2000/svg" p-id="1006" width="200" height="200"><path d="M349.06112 142.82752H238.1824c-74.99776 0-128.49152 70.57408-104.61184 141.312 54.4768 161.46432 127.71328 304.49664 222.24896 399.03232 94.53568 94.53568 237.568 167.77216 398.99136 222.24896 70.73792 23.87968 141.35296-29.61408 141.35296-104.61184v-110.87872c0-25.6-13.88544-49.19296-36.2496-61.6448l-96.58368-53.69856-5.65248-2.82624a70.53312 70.53312 0 0 0-60.17024 1.39264l-94.28992 47.104-1.31072-0.32768a223.6416 223.6416 0 0 1-9.09312-2.82624l-11.01824-3.8912a278.24128 278.24128 0 0 1-68.52608-37.4784 249.69216 249.69216 0 0 1-50.29888-50.3808 280.41216 280.41216 0 0 1-37.39648-68.48512l-2.08896-5.7344a261.48864 261.48864 0 0 1-3.39968-10.07616l-1.6384-5.61152 47.14496-94.208a70.53312 70.53312 0 0 0-1.4336-65.78176l-53.4528-96.33792a70.53312 70.53312 0 0 0-61.6448-36.29056zM238.1824 196.44416h110.87872c6.144 0 11.79648 3.2768 14.7456 8.68352l53.49376 96.33792c2.70336 4.87424 2.8672 10.77248 0.32768 15.7696L366.1824 420.2496a26.78784 26.78784 0 0 0-2.33472 17.12128c5.98016 30.88384 22.85568 75.40736 56.23808 120.05376a303.84128 303.84128 0 0 0 61.07136 61.19424c44.72832 33.54624 89.33376 50.3808 120.34048 56.32a26.78784 26.78784 0 0 0 16.9984-2.33472l103.0144-51.52768a16.91648 16.91648 0 0 1 15.81056 0.36864l96.58368 53.6576a16.91648 16.91648 0 0 1 8.68352 14.82752v110.87872c0 39.03488-35.26656 65.7408-70.57408 53.82144-154.29632-52.06016-290.89792-122.0608-378.22464-209.38752C306.3808 557.91616 236.42112 421.31456 184.32 267.0592c-11.91936-35.30752 14.78656-70.57408 53.82144-70.57408z" p-id="1007"></path></svg>